<?xml version="1.0" encoding="utf-8"?>
<!-- Generator: Adobe Illustrator 18.1.0, SVG Export Plug-In . SVG Version: 6.00 Build 0)  -->
<svg version="1.1" id="Layer_2" xmlns="http://www.w3.org/2000/svg" xmlns:xlink="http://www.w3.org/1999/xlink" x="0px" y="0px"
	 viewBox="0 0 792 792" enable-background="new 0 0 792 792" xml:space="preserve">
<path id="blue-akalla" fill="none" stroke="#00AEEF" stroke-width="2" stroke-miterlimit="10" d="M445,300.9
	c-19-22.6,2.2-22.6-9.3-46.6c-5-10.4-21.4-15.1-34.3-30.9c-7.1-8.7-21.5-26.4-30.5-33.3c-29-22,3.6-45.6,4.7-60
	c0.8-10.2-14.2-30-22.7-35.3c-11.5-7.1-28.1-4.5-34.5-18.5c-9.9-21.9-19.4-3.4-35.3-28.5c-8.4-13.2-14.4-18.2-32.9-18.2"/>
<path id="blue-hjulsta" fill="none" stroke="#00AEEF" stroke-width="2" stroke-miterlimit="10" d="M445,300.9
	c-9.8-7.7-26.7-1.1-37.7-7.7c-4.2-2.5-19-11.7-23.3-19.4c-4.1-7.3-2-14.5-3.9-26.9c-2.1-14.3-6.5-19.1-16.1-28.7
	s-44.9-12.1-50.4-32.1c-8.1-29.5-8.4-38.1-23-49.5c-8.8-6.8-50-23.5-58.2-26.5c-8.3-3-39.1-6.9-39.1-6.9"/>
<path id="blue-kungs" fill="none" stroke="#00AEEF" stroke-width="2" stroke-miterlimit="10" d="M596,370.7
	c-8.8-0.3-27.8-12.5-41.5-6.5c-5.9,2.6-13.8,9.8-30,8.3c-13.3-1.2-22-11.5-24.3-13.3c-19.3-15-14.3-4-28.5-16
	c-16.6-14-1.5-17.3-26.6-42.3"/>
</svg>
